<svg version="1.2" xmlns="http://www.w3.org/2000/svg" viewBox="0 0 1550 2035" width="1550" height="2035">
	<title>RBLBANK</title>
	<style>
		.s0 { fill: #29377d } 
		.s1 { fill: #ea2127 } 
	</style>
	<path fill-rule="evenodd" class="s0" d="m387.4 491.8v-491.7h-387.1v1162.5c0-286 155.6-537.3 387.1-670.8zm435.8-102.4v388.8c191.3 23.9 339.7 186.8 339.7 383.9 0 214.7-173.2 388.4-388 388.4-213.4 0-387.1-173.7-387.1-388.4h-0.4v671.7c114.1 65.9 246.7 104.2 387.5 104.2 428.2 0 775.1-346.9 775.1-775 0-411.8-321.2-748.8-726.8-773.6z"/>
	<path class="s1" d="m387.4 491.8c-231.5 133.5-387.1 384.8-387.1 670.8v716.3 155.6h387.1v-101.4-99.3-671.7h0.4c0-197.1 148-360 338.8-383.9v-388.8c-123.1 7.2-238.6 43.7-339.2 102.4z"/>
</svg>